<svg width="10" height="27" viewBox="0 0 10 27" xmlns="http://www.w3.org/2000/svg">
<path fill="current" stroke="current" d="M4.71094 27H0.544922L3.84961 7.98047H8.01562L4.71094 27ZM4.44727 3.11133C4.44727 2.4668 4.6582 1.91602 5.08008 1.45898C5.50195 1.00195 6.07031 0.761719 6.78516 0.738281C7.46484 0.714844 8.02734 0.925781 8.47266 1.37109C8.92969 1.80469 9.1582 2.33789 9.1582 2.9707C9.1582 3.63867 8.93555 4.18945 8.49023 4.62305C8.05664 5.05664 7.5 5.28516 6.82031 5.30859C6.15234 5.33203 5.58984 5.13281 5.13281 4.71094C4.67578 4.27734 4.44727 3.74414 4.44727 3.11133Z"/>
</svg>
