<svg width="58" height="58" viewBox="0 0 58 58" fill="none" xmlns="http://www.w3.org/2000/svg">
<path fill-rule="evenodd" clip-rule="evenodd" d="M11.7146 0H0V11.7158C0 5.2417 5.24097 0 11.7146 0ZM46.278 0C52.7517 0 57.9926 5.2417 58 11.7158V0H46.278ZM58 46.2842C58 52.7583 52.7517 58 46.2854 58H58V46.2842ZM11.7146 58C5.24097 58 0 52.7583 0 46.291V58H11.7146ZM28.7509 13.3257L29.9253 11.2954C30.6501 10.0268 32.2666 9.59913 33.5351 10.3237C34.8039 11.0488 35.2314 12.6655 34.5066 13.9345L23.1909 33.5239H31.375C34.028 33.5239 35.5141 36.6416 34.3615 38.8017H10.3671C8.90283 38.8017 7.72852 37.6274 7.72852 36.1631C7.72852 34.6982 8.90283 33.5239 10.3671 33.5239H17.0942L25.7063 18.5962L23.0168 13.9272C22.292 12.6587 22.7197 11.0561 23.9882 10.3169C25.2568 9.5918 26.8588 10.0195 27.5981 11.2881L28.7509 13.3257ZM18.5732 41.5205L16.0358 45.9214C15.311 47.1904 13.6945 47.6181 12.426 46.893C11.1572 46.1679 10.7297 44.5512 11.4546 43.2822L13.3393 40.02C15.4704 39.3603 17.2031 39.8676 18.5732 41.5205ZM40.4218 33.5385H47.2868C48.7509 33.5385 49.9255 34.7129 49.9255 36.1772C49.9255 37.6421 48.7509 38.8164 47.2868 38.8164H43.4736L46.0471 43.2822C46.7719 44.5512 46.3444 46.1533 45.0756 46.893C43.8071 47.6181 42.205 47.1904 41.4658 45.9214C39.0549 41.7402 36.978 38.144 35.2378 35.1308C33.8488 32.726 32.6745 30.6924 31.7158 29.0288C29.5048 25.2153 31.0849 21.3877 32.6435 20.0898C34.0962 22.582 36.1499 26.1391 38.8134 30.7524L38.9047 30.9106L40.4218 33.5385Z" fill="#E26E6E"/>
</svg>
