<svg width="100%" height="100%" viewBox="0 0 30 36" fill="none" xmlns="http://www.w3.org/2000/svg">
<path fill="current" fill-rule="evenodd" clip-rule="evenodd" d="M15.1264 10.3244C15.1686 10.3276 15.2128 10.331 15.2611 10.3353C15.8007 10.3092 16.2214 10.1414 16.8283 9.89945L16.8283 9.89944C17.0755 9.80086 17.3536 9.68996 17.6833 9.5713C19.0027 9.0572 20.662 8.43639 22.9776 8.72407C25.2843 9.01064 27.4427 9.98039 29.0406 12.2384C26.654 13.622 25.0537 16.1688 25.0537 19.0817C25.0537 22.3696 27.0927 25.1912 30 26.4C29.1197 28.828 27.9002 30.9609 26.6787 32.6799C25.1847 34.6799 23.5237 36.0044 21.7815 35.9426L21.7214 35.939C21.2456 35.9101 20.8775 35.8878 20.3056 35.7174C19.8266 35.5748 19.3718 35.4128 18.9299 35.2553C17.8812 34.8817 16.9058 34.5342 15.8553 34.5342L15.8531 34.5307L15.8509 34.5342C14.486 34.5245 13.3039 34.9489 12.2038 35.344C11.3103 35.6649 10.4708 35.9663 9.63127 36C7.73561 35.9161 5.98437 34.3576 4.48136 32.4636C2.59022 29.9029 0.946502 26.4256 0.234149 22.3311C-0.275876 19.3995 0.121327 16.989 0.7171 15.1788C2.31489 10.8123 5.37504 9.08608 8.13279 8.78586C9.97871 8.5849 11.7644 9.24378 13.2689 9.79888C13.5729 9.91107 13.8655 10.019 14.1448 10.1148C14.6954 10.2918 14.876 10.3055 15.1264 10.3244L15.1264 10.3244Z"/>
<path fill="current" fill-rule="evenodd" clip-rule="evenodd" d="M22.1651 2.40176C22.3702 1.59415 22.4134 0.662245 22.3412 0.00440856C22.3411 0.00294008 22.341 0.00147169 22.3409 3.40733e-06C22.3396 2.62397e-06 22.3382 0 22.3369 0C22.011 0 20.0426 0.111195 18.0851 1.61589C17.3581 2.1748 16.6499 2.90066 15.9954 3.94261C15.6181 4.54322 15.35 5.18764 15.1423 5.85431C14.8865 6.6759 14.8309 7.53201 14.9528 8.26932C14.9529 8.27226 14.9531 8.2752 14.9533 8.27814C14.9545 8.27814 14.9558 8.27814 14.9571 8.27814C17.7602 8.48111 20.0528 6.72847 21.4294 4.30463C21.7755 3.69536 21.9936 3.07726 22.1651 2.40176Z"/>
</svg>
