<svg width="inherit" height="inherit" viewBox="0 0 26 25" fill="none" xmlns="http://www.w3.org/2000/svg">
<path d="M19.95 0H5.05C2.25938 0 0 2.25938 0 5.05V19.9531C0 22.7406 2.25938 25 5.05 25H19.9531C22.7406 25 25.0031 22.7406 25.0031 19.95V5.05C25 2.25938 22.7406 0 19.95 0Z" fill="#FAFEFF"/>
<path d="M12.3936 5.74376L12.8998 4.86876C13.2123 4.32189 13.9092 4.13751 14.4561 4.45001C15.0029 4.76251 15.1873 5.45939 14.8748 6.00626L9.99668 14.45H13.5248C14.6686 14.45 15.3092 15.7938 14.8123 16.725H4.46855C3.8373 16.725 3.33105 16.2188 3.33105 15.5875C3.33105 14.9563 3.8373 14.45 4.46855 14.45H7.36856L11.0811 8.01564L9.92168 6.00314C9.60918 5.45626 9.79356 4.76564 10.3404 4.44689C10.8873 4.13439 11.5779 4.31876 11.8967 4.86564L12.3936 5.74376ZM8.00606 17.8969L6.91231 19.7938C6.59981 20.3406 5.90293 20.525 5.35605 20.2125C4.80918 19.9 4.6248 19.2031 4.9373 18.6563L5.74981 17.25C6.66856 16.9656 7.41543 17.1844 8.00606 17.8969ZM17.4248 14.4563H20.3842C21.0154 14.4563 21.5217 14.9625 21.5217 15.5938C21.5217 16.225 21.0154 16.7313 20.3842 16.7313H18.7404L19.8498 18.6563C20.1623 19.2031 19.9779 19.8938 19.4311 20.2125C18.8842 20.525 18.1936 20.3406 17.8748 19.7938C16.0061 16.5531 14.6029 14.1281 13.6717 12.5125C12.7186 10.8688 13.3998 9.21877 14.0717 8.65939C14.8186 9.94064 15.9342 11.875 17.4248 14.4563Z" fill="#637280"/>
</svg>
