<svg width="inherit" height="inherit" viewBox="0 0 58 58" fill="none" xmlns="http://www.w3.org/2000/svg">
<path fill="current" fill-rule="evenodd" clip-rule="evenodd" d="M11.7146 0H46.2781C52.7517 0 57.9927 5.2417 58 11.7158V46.2842C58 
    52.7583 52.7517 58 46.2855 58H11.7146C5.24104 58 0 52.7583 0 46.291V11.7158C0 5.2417 5.24104 0 11.7146 0ZM29.9242 11.2954L28.7498 
    13.3257L27.5973 11.2881C26.8579 10.0195 25.2558 9.5918 23.9872 10.3169C22.7185 11.0562 22.2909 12.6587 23.0159 13.9272L25.7053 
    18.5962L17.0933 33.5239H10.3661C8.90196 33.5239 7.72755 34.6982 7.72755 36.1631C7.72755 37.6274 8.90196 38.8018 10.3661 
    38.8018H34.3607C35.5133 36.6416 34.0272 33.5239 31.3739 33.5239H23.19L34.5057 13.9346C35.2307 12.6655 34.803 11.0488 33.5344 
    10.3237C32.2657 9.59912 30.6492 10.0269 29.9242 11.2954ZM16.0351 45.9214L18.5722 41.5205C17.2021 39.8677 15.4695 39.3604 13.3384 
    40.02L11.4537 43.2822C10.7286 44.5513 11.1563 46.168 12.4249 46.8931C13.6936 47.6182 15.3101 47.1904 16.0351 45.9214ZM47.2857 
    33.5386H40.4209C36.9631 27.5498 34.3751 23.062 32.6426 20.0898C31.0842 21.3877 29.5039 25.2153 31.7148 29.0288C32.691 30.7227 
    33.8905 32.7998 35.3125 35.2622C37.037 38.2485 39.0886 41.8008 41.4648 45.9214C42.2042 47.1904 43.8063 47.6182 45.0749 
    46.8931C46.3436 46.1533 46.7712 44.5513 46.0462 43.2822L43.4728 38.8164H47.2857C48.7502 38.8164 49.9244 37.6421 49.9244 
    36.1772C49.9244 34.7129 48.7502 33.5386 47.2857 33.5386Z"/>
</svg>
