<svg width="100%" height="100%" viewBox="0 0 42 63" fill="none" xmlns="http://www.w3.org/2000/svg">
<g clip-path="url(#clip0)">
<path fill="current" d="M10.5021 63.0001C16.297 63.0001 21 58.2961 21 52.5001V42.0001H10.5021C4.7073 42.0001 0.00424194 46.7041 0.00424194 52.5001C0.00424194 58.2961 4.7073 63.0001 10.5021 63.0001Z"/>
<path fill="current" d="M0.00424194 31.4999C0.00424194 25.7039 4.7073 20.9999 10.5021 20.9999H21V41.9999H10.5021C4.7073 41.9999 0.00424194 37.2959 0.00424194 31.4999Z"/>
<path fill="current" d="M0.00439453 10.5001C0.00439453 4.70406 4.70745 6.10352e-05 10.5023 6.10352e-05H21.0002V21.0001H10.5023C4.70745 21.0001 0.00439453 16.2961 0.00439453 10.5001Z"/>
<path fill="current" d="M21 6.10352e-05H31.4979C37.2928 6.10352e-05 41.9958 4.70406 41.9958 10.5001C41.9958 16.2961 37.2928 21.0001 31.4979 21.0001H21V6.10352e-05Z"/>
<path fill="current" d="M41.9958 31.4999C41.9958 37.2959 37.2928 41.9999 31.4979 41.9999C25.7031 41.9999 21 37.2959 21 31.4999C21 25.7039 25.7031 20.9999 31.4979 20.9999C37.2928 20.9999 41.9958 25.7039 41.9958 31.4999Z"/>
</g>
<defs>
<clipPath id="clip0">
<rect width="42" height="63" fill="white"/>
</clipPath>
</defs>
</svg>
