<svg width="100%" height="100%" viewBox="0 0 42 63" fill="none" xmlns="http://www.w3.org/2000/svg">
<path fill="current" fill-rule="evenodd" clip-rule="evenodd" 
d="M10.5022 0H0V63H10.502H41.99V31.854C41.9939 31.7363 41.9958 31.6187 41.9958 31.5C41.9958 31.3813 41.9939 31.2637 41.99 
31.146V10.854C41.9939 10.7363 41.9958 10.6187 41.9958 10.5C41.9958 10.3813 41.9939 10.2637 41.99 10.146V0H31.4978C37.1743 0 41.8032 
4.51367 41.99 10.146V10.854C41.8032 16.4863 37.1743 21 31.4978 21H21.0002V31.4487C21.0278 25.6763 25.7202 21 31.4978 21C37.1743 21 
41.8032 25.5137 41.99 31.146V31.854C41.8032 37.4863 37.1743 42 31.4978 42C25.7202 42 21.0276 37.3232 21 31.5508V42V52.5C21 58.2959 
16.2969 63 10.502 63C4.70728 63 0.00415039 58.2959 0.00415039 52.5C0.00415039 46.7041 4.70728 42 10.502 42C4.70728 42 0.00415039 
37.2959 0.00415039 31.5C0.00415039 25.7041 4.70728 21 10.5022 21C4.70752 21 0.00439453 16.2959 0.00439453 10.5C0.00439453 4.7041 
4.70752 0 10.5022 0Z"/>
</svg>
