<svg width="inherit" height="inherit" viewBox="0 0 58 58" fill="none" xmlns="http://www.w3.org/2000/svg">
<path fill="current" fill-rule="evenodd" clip-rule="evenodd" d="M29.0002 0H0V29.1841V58H58V29.1841V0H29.0002ZM29.0002 0C45.016 0 58 13.0659 58 29.1841C58 42.0742 49.7011 53.0098 38.1847 56.873C36.7147 57.1597 36.1926 56.25 36.1926 55.4731C36.1926 54.9624 36.2021 53.8354 36.211 52.3061C36.219 50.957 36.2263 49.2944 36.2263 47.4644C36.2263 44.7417 35.2994 42.9653 34.2592 42.0596C40.7169 41.3374 47.5012 38.8691 47.5012 27.6602C47.5012 24.4736 46.3759 21.8701 44.5164 19.8267C44.8176 19.0913 45.8108 16.123 44.2321 12.103C44.2321 12.103 41.8003 11.3188 36.2651 15.0947C33.9476 14.4482 31.4648 14.124 29.0002 14.1128C26.5356 14.124 24.0548 14.4482 21.7415 15.0947C16.1997 11.3188 13.7644 12.103 13.7644 12.103C12.1897 16.123 13.1823 19.0913 13.4835 19.8267C11.6283 21.8701 10.4954 24.4736 10.4954 27.6602C10.4954 38.8428 17.2667 41.3452 23.7081 42.083C22.8787 42.8115 22.1272 44.0991 21.8668 45.9853C20.212 46.731 16.0142 48.021 13.4277 43.5596C13.4277 43.5596 11.8944 40.7578 8.9823 40.5518C8.9823 40.5518 6.15271 40.5146 8.78394 42.3262C8.78394 42.3262 10.6847 43.2231 12.0039 46.5962C12.0039 46.5962 13.7063 51.8052 21.7741 50.0395C21.7802 51.2305 21.7898 52.3882 21.7979 53.3418C21.8065 54.3413 21.8136 55.1172 21.8136 55.4731C21.8136 56.2441 21.2815 57.1475 19.8321 56.8769C8.30945 53.0181 0 42.0786 0 29.1841C0 13.0659 12.9859 0 29.0002 0ZM10.3645 41.6626C10.571 41.7622 10.7976 41.7187 10.8615 41.5737C10.9345 41.4282 10.8144 41.2285 10.6036 41.1333C10.3938 41.0332 10.1666 41.0747 10.1042 41.2241C10.036 41.3696 10.1541 41.5674 10.3645 41.6626ZM11.6959 42.7197C11.8794 42.9238 12.1496 42.9834 12.2879 42.8545C12.3426 42.8052 12.3713 42.7358 12.3757 42.6577C12.3828 42.5288 12.3239 42.376 12.2059 42.248C12.0157 42.0444 11.7535 41.9839 11.6108 42.1133C11.542 42.1777 11.5155 42.2759 11.5288 42.3833C11.5427 42.4946 11.5993 42.6162 11.6959 42.7197ZM12.6187 44.2417C12.7984 44.501 13.089 44.6177 13.2666 44.4932C13.3501 44.4346 13.3952 44.3374 13.4023 44.2236C13.4106 44.0898 13.3665 43.9336 13.271 43.791C13.089 43.5337 12.8027 43.4214 12.6226 43.5464C12.4411 43.6709 12.4411 43.9819 12.6187 44.2417ZM14.1764 46.2798C14.4242 46.5205 14.7628 46.5679 14.9217 46.3916C14.9815 46.3301 15.0107 46.248 15.0123 46.1577C15.0152 45.9922 14.9256 45.7974 14.7628 45.6455C14.513 45.4072 14.1726 45.3574 14.0117 45.5342C13.9369 45.6167 13.9127 45.7344 13.9343 45.8599C13.9588 46.0019 14.0418 46.1548 14.1764 46.2798ZM16.336 47.2676C16.6645 47.3647 16.9906 47.2607 17.0606 47.0322C17.1289 46.7998 16.9138 46.5337 16.5863 46.4346C16.2553 46.3306 15.9278 46.439 15.8596 46.6689C15.7933 46.8999 16.008 47.1675 16.336 47.2676ZM18.8798 47.7485C19.2246 47.7441 19.5031 47.5444 19.495 47.3042C19.495 47.167 19.4022 47.0449 19.2579 46.9673C19.1506 46.9092 19.0149 46.8755 18.8678 46.8784C18.6278 46.8823 18.4233 46.978 18.3203 47.1172C18.2745 47.1792 18.2487 47.25 18.2487 47.3247C18.2526 47.5615 18.533 47.7563 18.8798 47.7485ZM21.3457 47.7519C21.6881 47.688 21.9277 47.4468 21.8864 47.2119C21.8427 46.9731 21.5358 46.832 21.193 46.8916C20.8568 46.9541 20.6128 47.1953 20.6546 47.436C20.6973 47.6689 21.009 47.814 21.3457 47.7519Z"/>
</svg>
