<svg width="inherit" height="inherit" viewBox="0 0 58 58" xmlns="http://www.w3.org/2000/svg">
<path fill="current" d="M29.0002 0C12.9859 0 0 13.0659 0 29.1842C0 42.0786 8.30945 53.0181 19.8321 56.8771C21.2815 57.1472 21.8136 56.244 21.8136 55.4732C21.8136 54.7772 21.7867 52.4783 21.7742 50.0397C13.7063 51.8051 12.0039 46.5963 12.0039 46.5963C10.6847 43.223 8.78392 42.326 8.78392 42.326C6.15273 40.5147 8.98226 40.5519 8.98226 40.5519C11.8944 40.7578 13.4278 43.5594 13.4278 43.5594C16.0143 48.021 20.212 46.7311 21.8669 45.9854C22.1272 44.0992 22.8787 42.8117 23.7081 42.083C17.2667 41.345 10.4955 38.8426 10.4955 27.66C10.4955 24.4737 11.6283 21.8703 13.4835 19.8265C13.1824 19.0914 12.1897 16.1231 13.7644 12.1032C13.7644 12.1032 16.1997 11.3189 21.7415 15.0947C24.0548 14.4481 26.5357 14.1238 29.0002 14.1127C31.4648 14.1238 33.9476 14.4481 36.2652 15.0947C41.8003 11.3189 44.2322 12.1032 44.2322 12.1032C45.8108 16.1231 44.8176 19.0914 44.5165 19.8265C46.376 21.8703 47.5012 24.4737 47.5012 27.66C47.5012 38.8692 40.7169 41.3373 34.2593 42.0598C35.2994 42.9654 36.2263 44.7415 36.2263 47.4643C36.2263 51.3692 36.1927 54.5119 36.1927 55.4732C36.1927 56.2498 36.7147 57.1598 38.1847 56.8732C49.7011 53.0099 58 42.0743 58 29.1842C58 13.0659 45.016 0 29.0002 0ZM10.8615 41.5736C10.7977 41.7186 10.571 41.762 10.3645 41.6625C10.1542 41.5673 10.036 41.3696 10.1042 41.2242C10.1666 41.0748 10.3938 41.0333 10.6036 41.1333C10.8145 41.2285 10.9345 41.4281 10.8615 41.5736ZM12.288 42.8545C12.1497 42.9835 11.8793 42.9236 11.6959 42.7196C11.5062 42.5162 11.4707 42.2441 11.6109 42.1131C11.7535 41.9841 12.0157 42.0445 12.2059 42.248C12.3956 42.4538 12.4326 42.724 12.288 42.8545ZM13.2666 44.4934C13.089 44.6176 12.7984 44.5011 12.6188 44.2416C12.4411 43.9821 12.4411 43.6708 12.6227 43.5461C12.8027 43.4215 13.089 43.5336 13.271 43.7912C13.4482 44.055 13.4482 44.3663 13.2666 44.4934ZM14.9217 46.3914C14.7628 46.5678 14.4242 46.5205 14.1764 46.2798C13.9228 46.0444 13.8522 45.7105 14.0117 45.5341C14.1726 45.3572 14.513 45.407 14.7628 45.6457C15.0144 45.8806 15.0912 46.217 14.9217 46.3914ZM17.0607 47.0322C16.9906 47.2608 16.6645 47.3647 16.3361 47.2675C16.0081 47.1675 15.7934 46.8998 15.8597 46.6688C15.9279 46.4387 16.2554 46.3305 16.5863 46.4344C16.9138 46.5339 17.1289 46.7997 17.0607 47.0322ZM19.495 47.304C19.5032 47.5447 19.2246 47.7443 18.8798 47.7486C18.5331 47.7563 18.2527 47.5616 18.2488 47.3248C18.2488 47.0817 18.5211 46.884 18.8678 46.8782C19.2126 46.8715 19.495 47.0648 19.495 47.304ZM21.8864 47.2117C21.9277 47.4466 21.6881 47.6878 21.3457 47.752C21.009 47.8139 20.6974 47.6689 20.6546 47.436C20.6128 47.1953 20.8568 46.9541 21.193 46.8918C21.5359 46.8319 21.8427 46.973 21.8864 47.2117Z"/>
</svg>
