<svg width="inherit" height="inherit" viewBox="0 0 53 43" fill="none" xmlns="http://www.w3.org/2000/svg">
<path fill="current" d="M24.9141 42.7545L30.8438 10.1709L41.3203 10.1932C45.0078 10.2082 47.7734 10.9766 49.6172 12.4983C51.4766 14.0051 52.2969 16.1013 52.0781 18.7867C51.7969 21.9496 49.7734 24.3292 46.0078 25.9256C47.4141 26.403 48.5 27.2758 49.2656 28.5439C50.0312 29.8121 50.3594 31.3263 50.25 33.0868C50.0312 36.0707 48.7734 38.428 46.4766 40.1585C44.1953 41.8892 41.1797 42.7545 37.4297 42.7545H24.9141ZM33.375 28.0516L31.5234 38.234L37.5938 38.2564C39.4219 38.2564 40.9766 37.7939 42.2578 36.8688C43.5391 35.9439 44.2969 34.6758 44.5312 33.0645C44.75 31.5278 44.5078 30.3268 43.8047 29.4614C43.1016 28.5962 41.9375 28.1337 40.3125 28.074L33.375 28.0516ZM34.125 23.8891L39.4453 23.9115C41.3516 23.9115 42.9062 23.4789 44.1094 22.6135C45.3125 21.7482 46.0234 20.577 46.2422 19.1001C46.6328 16.3102 45.1562 14.863 41.8125 14.7586L35.7891 14.7361L34.125 23.8891Z"/>
<path fill="#FAFEFF" d="M23 40.964L28.9297 8.38037L39.4062 8.40275C43.0937 8.41767 45.8593 9.18606 47.7032 10.7078C49.5626 12.2146 50.3829 14.3107 50.1641 16.9962C49.8829 20.1591 47.8594 22.5387 44.0937 24.1351C45.5 24.6125 46.5859 25.4853 47.3515 26.7534C48.1172 28.0215 48.4454 29.5358 48.336 31.2963C48.1172 34.2801 46.8594 36.6374 44.5625 38.368C42.2812 40.0987 39.2656 40.964 35.5156 40.964H23ZM31.4609 26.2611L29.6093 36.4434L35.6797 36.4658C37.5078 36.4658 39.0625 36.0033 40.3437 35.0783C41.625 34.1533 42.3828 32.8852 42.6171 31.274C42.8359 29.7372 42.5937 28.5363 41.8906 27.6709C41.1875 26.8056 40.0234 26.3431 38.3984 26.2834L31.4609 26.2611ZM32.2109 22.0986L37.5312 22.121C39.4375 22.121 40.9921 21.6883 42.1953 20.823C43.3984 19.9577 44.1093 18.7865 44.3281 17.3096C44.7187 14.5196 43.2421 13.0725 39.8984 12.968L33.875 12.9456L32.2109 22.0986Z"/>
<path fill="current" fill-rule="evenodd" clip-rule="evenodd" d="M21.2227 16.019L22.836 7.1719H6.94531L7.76562 2.65137H29.4453L23.5391 35.235H2L2.84376 30.6697H18.5703L20.4112 20.4948H6.80957L7.62988 16.019H21.2227Z"/>
<path fill="#FAFEFF" fill-rule="evenodd" clip-rule="evenodd" d="M19.2227 14.1093L20.836 5.26223H4.94531L5.76562 0.741699H27.4453L21.5391 33.3253H0L0.843755 28.7601H16.5703L18.4112 18.5851H4.80957L5.62988 14.1093H19.2227Z"/>
</svg>
