<svg width="inherit" height="inherit" viewBox="0 0 53 57" fill="none" xmlns="http://www.w3.org/2000/svg">
<path fill="#F58C8C" d="M23.9141 45L29.8438 10.875L40.3203 10.8984C44.0078 10.9141 46.7734 11.7188 48.6172 13.3125C50.4766 14.8906 51.2969 17.0859 51.0781 19.8984C50.7969 23.2109 48.7734 25.7031 45.0078 27.375C46.4141 27.875 47.5 28.7891 48.2656 30.1172C49.0312 31.4453 49.3594 33.0312 49.25 34.875C49.0312 38 47.7734 40.4688 45.4766 42.2812C43.1953 44.0938 40.1797 45 36.4297 45H23.9141ZM32.375 29.6016L30.5234 40.2656L36.5938 40.2891C38.4219 40.2891 39.9766 39.8047 41.2578 38.8359C42.5391 37.8672 43.2969 36.5391 43.5312 34.8516C43.75 33.2422 43.5078 31.9844 42.8047 31.0781C42.1016 30.1719 40.9375 29.6875 39.3125 29.625L32.375 29.6016ZM33.125 25.2422L38.4453 25.2656C40.3516 25.2656 41.9062 24.8125 43.1094 23.9062C44.3125 23 45.0234 21.7734 45.2422 20.2266C45.6328 17.3047 44.1562 15.7891 40.8125 15.6797L34.7891 15.6562L33.125 25.2422Z"/>
<path fill="#FAFEFF" d="M22.9141 44L28.8438 9.875L39.3203 9.89844C43.0078 9.91406 45.7734 10.7188 47.6172 12.3125C49.4766 13.8906 50.2969 16.0859 50.0781 18.8984C49.7969 22.2109 47.7734 24.7031 44.0078 26.375C45.4141 26.875 46.5 27.7891 47.2656 29.1172C48.0312 30.4453 48.3594 32.0312 48.25 33.875C48.0312 37 46.7734 39.4688 44.4766 41.2812C42.1953 43.0938 39.1797 44 35.4297 44H22.9141ZM31.375 28.6016L29.5234 39.2656L35.5938 39.2891C37.4219 39.2891 38.9766 38.8047 40.2578 37.8359C41.5391 36.8672 42.2969 35.5391 42.5312 33.8516C42.75 32.2422 42.5078 30.9844 41.8047 30.0781C41.1016 29.1719 39.9375 28.6875 38.3125 28.625L31.375 28.6016ZM32.125 24.2422L37.4453 24.2656C39.3516 24.2656 40.9062 23.8125 42.1094 22.9062C43.3125 22 44.0234 20.7734 44.2422 19.2266C44.6328 16.3047 43.1562 14.7891 39.8125 14.6797L33.7891 14.6562L32.125 24.2422Z"/>
<path fill="#F58C8C" fill-rule="evenodd" clip-rule="evenodd" d="M20.2227 17L21.836 7.73438H5.94531L6.76562 3H28.4453L22.5391 37.125H1L1.84376 32.3438H17.5703L19.4112 21.6875H5.80957L6.62988 17H20.2227Z"/>
<path fill="#FAFEFF" fill-rule="evenodd" clip-rule="evenodd" d="M19.2227 16L20.836 6.73438H4.94531L5.76562 2H27.4453L21.5391 36.125H0L0.843755 31.3438H16.5703L18.4112 20.6875H4.80957L5.62988 16H19.2227Z"/>
</svg>
