<svg width="inherit" height="inherit" viewBox="0 0 58 58" fill="none" xmlns="http://www.w3.org/2000/svg">
<path fill-rule="evenodd" clip-rule="evenodd" d="M0 5.24658C0 2.34912 2.34912 0 5.24658 0H0V5.24658ZM0 52.7534V58H5.24658C2.34912 58 0 55.6509 0 52.7534ZM52.7532 58H58V52.7534C58 55.6509 55.6509 58 52.7532 58ZM58 5.24658V0H52.7534C55.6511 0 58 2.34912 58 5.24658ZM16.4209 51.6079C17.2642 51.6079 17.9478 50.9243 17.9478 50.0811V22.8359C17.9478 21.9927 17.2642 21.3091 16.4209 21.3091H9.92139C9.07812 21.3091 8.39478 21.9927 8.39478 22.8359V50.0811C8.39478 50.9243 9.07812 51.6079 9.92139 51.6079H16.4209ZM6.99683 12.5664C6.99683 15.9766 9.76123 18.7412 13.1711 18.7412C16.5813 18.7412 19.3457 15.9766 19.3457 12.5664C19.3457 9.15674 16.5811 6.39209 13.1711 6.39209C9.76123 6.39209 6.99683 9.15674 6.99683 12.5664ZM50.5093 51.6079C51.2844 51.6079 51.9131 50.9795 51.9131 50.2041V37.0181V36.9209C51.9133 31.168 51.9141 20.8521 40.8093 20.8521C35.7664 20.8521 33.3977 22.6982 31.804 25.0898V22.7129C31.804 21.938 31.1753 21.3091 30.4001 21.3091H23.6548C22.8794 21.3091 22.251 21.938 22.251 22.7129V50.2041C22.251 50.9795 22.8794 51.6079 23.6548 51.6079H30.4001C31.1755 51.6079 31.804 50.9795 31.804 50.2041V35.4644C31.979 33.4839 32.8508 29.0708 37.1489 29.0708C42.282 29.0708 42.1804 34.603 42.1375 36.9336C42.134 37.1191 42.1311 37.2842 42.1311 37.4248V50.2041C42.1311 50.9795 42.7598 51.6079 43.5349 51.6079H50.5093Z" fill="#E26E6E"/>
</svg>
