<svg width="inherit" height="inherit" viewBox="0 0 52 37" fill="none" xmlns="http://www.w3.org/2000/svg">
<path fill="current" fill-rule="evenodd" clip-rule="evenodd" d="M3.73457 0H48.262C48.8265 0 49.3576 0.134065 49.8367 0.358861L28.4239 
    15.3897C26.5619 17.2536 25.4086 17.2536 23.5466 15.3897L2.14253 0.367404C2.62852 0.137522 3.16334 0 3.73457 0ZM51.9982 
    33.2619C51.9982 35.3259 50.3262 37 48.2638 37H3.73457C1.6722 37 0 35.3259 0 33.2619V4.85804C0 4.75774 0.00793236 4.65989 0.0195279 
    4.56306C0.0296994 4.47843 0.0427208 4.39481 0.0557403 4.3112L22.0382 19.9135C24.2259 22.103 27.7741 22.103 29.962 19.9135L51.9443 
    4.3112L51.9524 4.36572C51.9762 4.52705 52 4.68898 52 4.85804V33.2619H51.9982Z"/>
</svg>
