<svg width="52" height="19" viewBox="0 0 52 19" fill="none" xmlns="http://www.w3.org/2000/svg">
<path fill="current" d="M7.3584 16.4977C6.47754 17.4358 5.37467 17.8906 4.0498 17.8619C3.29785 17.8476 2.67122 17.6614 2.16992 17.3033C1.67578 16.9452 1.32129 16.4475 1.10645 15.8102C0.898763 15.1656 0.837891 14.4101 0.923828 13.5435L2.18066 6.02402H4.72656L3.45898 13.5758C3.43034 13.8407 3.42676 14.0986 3.44824 14.3492C3.51986 15.2372 3.96745 15.6991 4.79102 15.735C5.91536 15.7779 6.82487 15.3268 7.51953 14.3814L8.98047 6.02402H11.5264L9.51758 17.6471H7.13281L7.3584 16.4977ZM17.4561 9.82675L20.1953 6.02402H23.1709L18.7236 11.8678L21.3125 17.6471H18.6484L17.0264 13.6832L14.1689 17.6471H11.2041L15.791 11.6314L13.2881 6.02402H15.9521L17.4561 9.82675ZM23.5361 18.9898H21.4307L30.3467 2.00644H32.4629L23.5361 18.9898ZM38.7256 16.4977C37.8447 17.4358 36.7419 17.8906 35.417 17.8619C34.665 17.8476 34.0384 17.6614 33.5371 17.3033C33.043 16.9452 32.6885 16.4475 32.4736 15.8102C32.266 15.1656 32.2051 14.4101 32.291 13.5435L33.5479 6.02402H36.0938L34.8262 13.5758C34.7975 13.8407 34.7939 14.0986 34.8154 14.3492C34.887 15.2372 35.3346 15.6991 36.1582 15.735C37.2826 15.7779 38.1921 15.3268 38.8867 14.3814L40.3477 6.02402H42.8936L40.8848 17.6471H38.5L38.7256 16.4977ZM46.2129 17.6471H43.667L45.6865 6.02402H48.2324L46.2129 17.6471ZM46.0518 3.04843C46.0518 2.65455 46.1807 2.31796 46.4385 2.03867C46.6963 1.75937 47.0436 1.61256 47.4805 1.59824C47.8958 1.58391 48.2396 1.71282 48.5117 1.98495C48.791 2.24993 48.9307 2.57578 48.9307 2.96249C48.9307 3.3707 48.7946 3.70729 48.5225 3.97226C48.2575 4.23723 47.9173 4.37688 47.502 4.3912C47.0938 4.40553 46.75 4.28378 46.4707 4.02597C46.1914 3.761 46.0518 3.43515 46.0518 3.04843Z"/>
</svg>
