<svg width="inherit" height="inherit" viewBox="0 0 30 22" fill="none" xmlns="http://www.w3.org/2000/svg">
<path d="M3.12042 21.0345C4.02741 21.6823 5.29698 21.6305 6.65747 21.6564C12.9278 21.6564 13.2843 21.9191 14.95 19.9979L18.8828 14.4846L21.8177 21.6564H26.6377L21.9537 11.2L30 0.626953H24.6163L19.6603 7.5072L16.9392 0.626953H12.1192L16.6478 10.7724L12.9354 15.641C10.6917 18.5115 10.87 18.1969 7.86272 18.1969C6.37265 18.1321 5.56283 17.2963 5.43327 15.6896C5.39439 15.2361 5.40088 14.7697 5.4527 14.2903L7.74611 0.626953H3.13986L0.865867 14.232C0.710385 15.7998 0.820522 17.1668 1.19628 18.3329C1.585 19.4861 2.22636 20.3866 3.12042 21.0345Z" fill="#FAFEFF"/>
</svg>
