<svg width="100%" height="100%" viewBox="0 0 58 58" fill="none" xmlns="http://www.w3.org/2000/svg">
<path fill-rule="evenodd" clip-rule="evenodd" d="M29 0H0V29V58H29H58V29V0H29ZM29 0C45.008 0 58 12.9922 58 29C58 45.0078 45.008 58 29 58C12.9919 58 0 45.0078 0 29C0 12.9922 12.9919 0 29 0ZM27.8672 14.8398V4.07812C25.3899 4.19287 22.9968 4.67529 20.7588 5.46582C19.269 7.90429 17.9809 10.6484 16.9922 13.6221C20.5005 14.3755 24.1423 14.8057 27.8672 14.8398ZM37.2412 5.46582C35.0032 4.67529 32.6101 4.19287 30.1328 4.07812V14.8398C33.8576 14.8057 37.4995 14.3755 41.0078 13.6221C40.019 10.6484 38.7309 7.90429 37.2412 5.46582ZM14.7832 13.1123C15.4892 10.9595 16.3332 8.90966 17.3037 6.99511C14.9043 8.28466 12.7231 9.9463 10.875 11.9228C12.1572 12.3623 13.4595 12.7686 14.7832 13.1123ZM47.125 11.9228C45.2768 9.9463 43.0957 8.28466 40.6963 6.99511C41.6667 8.90966 42.5107 10.9595 43.2168 13.1123C44.5405 12.7686 45.8428 12.3623 47.125 11.9228ZM14.1318 15.2646C12.49 14.8354 10.8691 14.3345 9.28906 13.7637C6.26758 17.6973 4.42431 22.5576 4.1914 27.8672H12.3476C12.4402 23.4355 13.0473 19.1978 14.1318 15.2646ZM53.8086 27.8672C53.5757 22.5576 51.7324 17.6973 48.7109 13.7637C47.1308 14.3345 45.51 14.8354 43.8681 15.2646C44.9526 19.1978 45.5598 23.4355 45.6523 27.8672H53.8086ZM27.8672 17.0771C23.9302 17.042 20.0744 16.6099 16.3691 15.8027C15.3296 19.5557 14.7063 23.6103 14.6133 27.8672H27.8672V17.0771ZM43.3867 27.8672C43.2937 23.6103 42.6704 19.5557 41.6308 15.8027C37.9255 16.6099 34.0698 17.042 30.1328 17.0771V27.8672H43.3867ZM12.3476 30.1328H4.1914C4.42431 35.4424 6.26758 40.3027 9.28906 44.2363C10.8691 43.6655 12.49 43.1645 14.1318 42.7353C13.0473 38.8022 12.4402 34.5645 12.3476 30.1328ZM27.8672 30.1328H14.6133C14.7063 34.3896 15.3296 38.4443 16.3691 42.1973C20.0744 41.3901 23.9302 40.958 27.8672 40.9228V30.1328ZM43.3867 30.1328H30.1328V40.9228C34.0698 40.958 37.9255 41.3901 41.6308 42.1973C42.6704 38.4443 43.2937 34.3896 43.3867 30.1328ZM53.8086 30.1328H45.6523C45.5598 34.5645 44.9526 38.8022 43.8681 42.7353C45.51 43.1645 47.1308 43.6655 48.7109 44.2363C51.7324 40.3027 53.5757 35.4424 53.8086 30.1328ZM27.8672 53.9219V43.1602C24.1423 43.1943 20.5005 43.6245 16.9922 44.3779C17.9809 47.3516 19.269 50.0957 20.7588 52.5342C22.9968 53.3247 25.3899 53.8071 27.8672 53.9219ZM41.0078 44.3779C37.4995 43.6245 33.8576 43.1943 30.1328 43.1602V53.9219C32.6101 53.8071 35.0032 53.3247 37.2412 52.5342C38.7309 50.0957 40.019 47.3516 41.0078 44.3779ZM17.3037 51.0049C16.3332 49.0903 15.4892 47.0405 14.7832 44.8877C13.4595 45.2314 12.1572 45.6377 10.875 46.0771C12.7231 48.0537 14.9043 49.7153 17.3037 51.0049ZM45.8623 45.6582C44.99 45.3789 44.1084 45.1191 43.2168 44.8877C42.5107 47.0405 41.6667 49.0903 40.6963 51.0049C43.0957 49.7153 45.2768 48.0537 47.125 46.0771C46.7063 45.9336 46.2854 45.7935 45.8623 45.6582Z" fill="#E26E6E"/>
</svg>
