<svg width="inherit" height="inherit" viewBox="0 0 58 58" fill="none" xmlns="http://www.w3.org/2000/svg">
<path fill="current" d="M29 0C12.992 0 0 12.992 0 29C0 45.008 12.992 58 29 58C45.008 58 58 45.008 58 29C58 12.992 45.008 0 29 0ZM27.8672 4.07812C27.8672 4.13021 27.8672 14.0647 27.8672 14.8398C24.1424 14.8055 20.5004 14.3753 16.9922 13.6221C17.9809 10.6486 19.2691 7.90416 20.7588 5.46582C22.9969 4.67514 25.3899 4.19274 27.8672 4.07812ZM30.1328 4.07812C32.6101 4.19274 35.0031 4.67514 37.2412 5.46582C38.7309 7.90416 40.0191 10.6486 41.0078 13.6221C37.4996 14.3753 33.8576 14.8055 30.1328 14.8398C30.1328 14.0647 30.1328 4.13021 30.1328 4.07812ZM17.3037 6.99512C16.3332 8.90954 15.4892 10.9593 14.7832 13.1123C13.4595 12.7687 12.1572 12.3624 10.875 11.9229C12.7231 9.94637 14.9043 8.28461 17.3037 6.99512ZM40.6963 6.99512C43.0957 8.28461 45.2769 9.94637 47.125 11.9229C45.8428 12.3624 44.5405 12.7687 43.2168 13.1123C42.5108 10.9593 41.6667 8.90954 40.6963 6.99512ZM9.28906 13.7637C10.8692 14.3344 12.4899 14.8353 14.1318 15.2646C13.0473 19.1975 12.4401 23.4355 12.3477 27.8672C7.14305 27.8672 11.3744 27.8672 4.19141 27.8672C4.42437 22.5578 6.26762 17.6975 9.28906 13.7637ZM48.7109 13.7637C51.7324 17.6975 53.5756 22.5578 53.8086 27.8672C46.6256 27.8672 50.8569 27.8672 45.6523 27.8672C45.5599 23.4355 44.9527 19.1975 43.8682 15.2646C45.5101 14.8353 47.1308 14.3344 48.7109 13.7637ZM16.3691 15.8027C20.0745 16.6097 23.9301 17.0421 27.8672 17.0771C27.8672 18.0966 27.8672 25.237 27.8672 27.8672C24.1064 27.8672 22.269 27.8672 14.6133 27.8672C14.7064 23.6103 15.3296 19.5555 16.3691 15.8027ZM41.6308 15.8027C42.6704 19.5555 43.2936 23.6103 43.3867 27.8672C35.731 27.8672 33.8936 27.8672 30.1328 27.8672C30.1328 25.237 30.1328 18.0966 30.1328 17.0771C34.0699 17.0421 37.9255 16.6097 41.6308 15.8027ZM4.19141 30.1328C11.3744 30.1328 7.14305 30.1328 12.3477 30.1328C12.4401 34.5645 13.0473 38.8025 14.1318 42.7354C12.4899 43.1647 10.8692 43.6656 9.28906 44.2363C6.26762 40.3025 4.42437 35.4422 4.19141 30.1328ZM14.6133 30.1328C22.269 30.1328 24.1063 30.1328 27.8672 30.1328C27.8672 32.763 27.8672 39.9034 27.8672 40.9229C23.9301 40.9579 20.0745 41.3903 16.3691 42.1973C15.3296 38.4445 14.7064 34.3897 14.6133 30.1328ZM30.1328 30.1328C33.8936 30.1328 35.731 30.1328 43.3867 30.1328C43.2936 34.3897 42.6704 38.4445 41.6308 42.1973C37.9255 41.3903 34.0699 40.9579 30.1328 40.9229C30.1328 39.9034 30.1328 32.763 30.1328 30.1328ZM45.6523 30.1328C50.8569 30.1328 46.6256 30.1328 53.8086 30.1328C53.5756 35.4422 51.7324 40.3025 48.7109 44.2363C47.1308 43.6656 45.5101 43.1647 43.8682 42.7354C44.9527 38.8025 45.5599 34.5645 45.6523 30.1328ZM27.8672 43.1602C27.8672 43.9353 27.8672 53.8698 27.8672 53.9219C25.3899 53.8073 22.9969 53.3249 20.7588 52.5342C19.2691 50.0958 17.9809 47.3514 16.9922 44.3779C20.5004 43.6246 24.1424 43.1945 27.8672 43.1602ZM30.1328 43.1602C33.8576 43.1945 37.4996 43.6246 41.0078 44.3779C40.0191 47.3514 38.7309 50.0958 37.2412 52.5342C35.0031 53.3249 32.61 53.8073 30.1328 53.9219C30.1328 53.8698 30.1328 43.9353 30.1328 43.1602ZM14.7832 44.8877C15.4892 47.0407 16.3332 49.0905 17.3037 51.0049C14.9043 49.7154 12.7231 48.0536 10.875 46.0771C12.1572 45.6376 13.4595 45.2313 14.7832 44.8877ZM43.2168 44.8877C44.5405 45.2313 45.8428 45.6376 47.125 46.0771C45.2769 48.0536 43.0957 49.7154 40.6963 51.0049C41.6668 49.0905 42.5108 47.0407 43.2168 44.8877Z"/>
</svg>

